<mxfile host="app.diagrams.net" agent="Mozilla/5.0 (Windows NT 10.0; Win64; x64) AppleWebKit/537.36 (KHTML, like Gecko) Chrome/131.0.0.0 Safari/537.36 Edg/131.0.0.0" version="25.0.3">
  <diagram name="Trang-1" id="7MOgsrUV_eq2U4ee2PYh">
    <mxGraphModel dx="2564" dy="885" grid="1" gridSize="10" guides="1" tooltips="1" connect="1" arrows="1" fold="1" page="1" pageScale="1" pageWidth="827" pageHeight="1169" math="0" shadow="0">
      <root>
        <mxCell id="0" />
        <mxCell id="1" parent="0" />
        <mxCell id="ijPsNaQJWuUupHhfUAEt-3" value="&lt;font style=&quot;font-size: 16px;&quot;&gt;frequencyDivider&lt;/font&gt;" style="rounded=0;whiteSpace=wrap;html=1;fillColor=#dae8fc;strokeColor=#6c8ebf;" parent="1" vertex="1">
          <mxGeometry x="349" y="40" width="130" height="70" as="geometry" />
        </mxCell>
        <mxCell id="ijPsNaQJWuUupHhfUAEt-5" value="&lt;font style=&quot;font-size: 16px;&quot;&gt;fsmForButtonState&lt;/font&gt;" style="rounded=0;whiteSpace=wrap;html=1;fillColor=#fff2cc;strokeColor=#d6b656;" parent="1" vertex="1">
          <mxGeometry x="338" y="160" width="152" height="70" as="geometry" />
        </mxCell>
        <mxCell id="ijPsNaQJWuUupHhfUAEt-6" value="&lt;font style=&quot;font-size: 16px;&quot;&gt;fsmForLuckyNumberGame&lt;/font&gt;" style="rounded=0;whiteSpace=wrap;html=1;fillColor=#d5e8d4;strokeColor=#82b366;" parent="1" vertex="1">
          <mxGeometry x="298" y="260" width="232" height="230" as="geometry" />
        </mxCell>
        <mxCell id="ijPsNaQJWuUupHhfUAEt-7" value="&lt;font style=&quot;font-size: 16px;&quot;&gt;resultChecker&lt;/font&gt;" style="rounded=0;whiteSpace=wrap;html=1;fillColor=#ffe6cc;strokeColor=#d79b00;" parent="1" vertex="1">
          <mxGeometry x="877" y="80" width="174" height="150" as="geometry" />
        </mxCell>
        <mxCell id="ijPsNaQJWuUupHhfUAEt-9" value="&lt;font style=&quot;font-size: 16px;&quot;&gt;speedController&lt;/font&gt;" style="rounded=0;whiteSpace=wrap;html=1;fillColor=#e1d5e7;strokeColor=#9673a6;" parent="1" vertex="1">
          <mxGeometry x="42" y="515" width="192" height="110" as="geometry" />
        </mxCell>
        <mxCell id="ijPsNaQJWuUupHhfUAEt-10" value="&lt;span style=&quot;font-size: 16px;&quot;&gt;ledController&lt;/span&gt;" style="rounded=0;whiteSpace=wrap;html=1;fillColor=#f8cecc;strokeColor=#b85450;" parent="1" vertex="1">
          <mxGeometry x="588" y="690" width="192" height="110" as="geometry" />
        </mxCell>
        <mxCell id="ijPsNaQJWuUupHhfUAEt-11" value="&lt;span style=&quot;font-size: 16px;&quot;&gt;playMusic&lt;/span&gt;" style="rounded=0;whiteSpace=wrap;html=1;fillColor=#ffcc99;strokeColor=#36393d;" parent="1" vertex="1">
          <mxGeometry x="-77" y="90" width="192" height="110" as="geometry" />
        </mxCell>
        <mxCell id="ijPsNaQJWuUupHhfUAEt-12" value="&lt;span style=&quot;font-size: 16px;&quot;&gt;lcdController&lt;/span&gt;" style="rounded=0;whiteSpace=wrap;html=1;fillColor=#bac8d3;strokeColor=#23445d;" parent="1" vertex="1">
          <mxGeometry x="38" y="690" width="192" height="110" as="geometry" />
        </mxCell>
        <mxCell id="ijPsNaQJWuUupHhfUAEt-14" value="" style="endArrow=classic;html=1;rounded=0;strokeWidth=3;" parent="1" edge="1">
          <mxGeometry width="50" height="50" relative="1" as="geometry">
            <mxPoint x="270" y="60" as="sourcePoint" />
            <mxPoint x="349" y="60" as="targetPoint" />
          </mxGeometry>
        </mxCell>
        <mxCell id="ijPsNaQJWuUupHhfUAEt-15" value="&lt;font style=&quot;font-size: 16px;&quot;&gt;clk&lt;/font&gt;" style="text;html=1;align=center;verticalAlign=middle;resizable=0;points=[];autosize=1;strokeColor=none;fillColor=none;" parent="1" vertex="1">
          <mxGeometry x="230" y="40" width="40" height="30" as="geometry" />
        </mxCell>
        <mxCell id="ijPsNaQJWuUupHhfUAEt-24" value="" style="endArrow=classic;html=1;rounded=0;strokeWidth=3;" parent="1" edge="1">
          <mxGeometry width="50" height="50" relative="1" as="geometry">
            <mxPoint x="270" y="90" as="sourcePoint" />
            <mxPoint x="349" y="90" as="targetPoint" />
          </mxGeometry>
        </mxCell>
        <mxCell id="ijPsNaQJWuUupHhfUAEt-25" value="&lt;span style=&quot;font-size: 16px;&quot;&gt;rst&lt;/span&gt;" style="text;html=1;align=center;verticalAlign=middle;resizable=0;points=[];autosize=1;strokeColor=none;fillColor=none;" parent="1" vertex="1">
          <mxGeometry x="230" y="70" width="40" height="30" as="geometry" />
        </mxCell>
        <mxCell id="ijPsNaQJWuUupHhfUAEt-26" value="" style="endArrow=classic;html=1;rounded=0;strokeWidth=3;" parent="1" edge="1">
          <mxGeometry width="50" height="50" relative="1" as="geometry">
            <mxPoint x="480" y="74.38" as="sourcePoint" />
            <mxPoint x="559" y="74.38" as="targetPoint" />
          </mxGeometry>
        </mxCell>
        <mxCell id="ijPsNaQJWuUupHhfUAEt-27" value="&lt;span style=&quot;font-size: 16px;&quot;&gt;clk_system&lt;/span&gt;" style="text;html=1;align=center;verticalAlign=middle;resizable=0;points=[];autosize=1;strokeColor=none;fillColor=none;" parent="1" vertex="1">
          <mxGeometry x="550" y="50" width="100" height="30" as="geometry" />
        </mxCell>
        <mxCell id="ijPsNaQJWuUupHhfUAEt-29" value="" style="endArrow=classic;html=1;rounded=0;strokeWidth=3;" parent="1" edge="1">
          <mxGeometry width="50" height="50" relative="1" as="geometry">
            <mxPoint x="260" y="194.38" as="sourcePoint" />
            <mxPoint x="339" y="194.38" as="targetPoint" />
          </mxGeometry>
        </mxCell>
        <mxCell id="ijPsNaQJWuUupHhfUAEt-30" value="&lt;span style=&quot;font-size: 16px;&quot;&gt;button&lt;/span&gt;" style="text;html=1;align=center;verticalAlign=middle;resizable=0;points=[];autosize=1;strokeColor=none;fillColor=none;" parent="1" vertex="1">
          <mxGeometry x="200" y="170" width="70" height="30" as="geometry" />
        </mxCell>
        <mxCell id="ijPsNaQJWuUupHhfUAEt-31" value="" style="endArrow=classic;html=1;rounded=0;strokeWidth=3;" parent="1" edge="1">
          <mxGeometry width="50" height="50" relative="1" as="geometry">
            <mxPoint x="490" y="194.38" as="sourcePoint" />
            <mxPoint x="569" y="194.38" as="targetPoint" />
          </mxGeometry>
        </mxCell>
        <mxCell id="ijPsNaQJWuUupHhfUAEt-32" value="&lt;span style=&quot;font-size: 16px;&quot;&gt;button_state_wire&lt;/span&gt;" style="text;html=1;align=center;verticalAlign=middle;resizable=0;points=[];autosize=1;strokeColor=none;fillColor=none;" parent="1" vertex="1">
          <mxGeometry x="540" y="160" width="150" height="30" as="geometry" />
        </mxCell>
        <mxCell id="ijPsNaQJWuUupHhfUAEt-35" value="" style="endArrow=classic;html=1;rounded=0;strokeWidth=3;" parent="1" edge="1">
          <mxGeometry width="50" height="50" relative="1" as="geometry">
            <mxPoint x="219" y="340" as="sourcePoint" />
            <mxPoint x="298" y="340" as="targetPoint" />
          </mxGeometry>
        </mxCell>
        <mxCell id="ijPsNaQJWuUupHhfUAEt-36" value="&lt;span style=&quot;font-size: 16px;&quot;&gt;winner&lt;/span&gt;" style="text;html=1;align=center;verticalAlign=middle;resizable=0;points=[];autosize=1;strokeColor=none;fillColor=none;" parent="1" vertex="1">
          <mxGeometry x="150" y="320" width="70" height="30" as="geometry" />
        </mxCell>
        <mxCell id="ijPsNaQJWuUupHhfUAEt-37" value="" style="endArrow=classic;html=1;rounded=0;strokeWidth=3;" parent="1" edge="1">
          <mxGeometry width="50" height="50" relative="1" as="geometry">
            <mxPoint x="219" y="380" as="sourcePoint" />
            <mxPoint x="298" y="380" as="targetPoint" />
          </mxGeometry>
        </mxCell>
        <mxCell id="ijPsNaQJWuUupHhfUAEt-38" value="&lt;span style=&quot;font-size: 16px;&quot;&gt;button_state_wire&lt;/span&gt;" style="text;html=1;align=center;verticalAlign=middle;resizable=0;points=[];autosize=1;strokeColor=none;fillColor=none;" parent="1" vertex="1">
          <mxGeometry x="110" y="350" width="150" height="30" as="geometry" />
        </mxCell>
        <mxCell id="ijPsNaQJWuUupHhfUAEt-39" value="" style="endArrow=classic;html=1;rounded=0;strokeWidth=3;" parent="1" edge="1">
          <mxGeometry width="50" height="50" relative="1" as="geometry">
            <mxPoint x="219" y="420" as="sourcePoint" />
            <mxPoint x="298" y="420" as="targetPoint" />
          </mxGeometry>
        </mxCell>
        <mxCell id="ijPsNaQJWuUupHhfUAEt-40" value="&lt;span style=&quot;font-size: 16px;&quot;&gt;result_state_wire&lt;/span&gt;" style="text;html=1;align=center;verticalAlign=middle;resizable=0;points=[];autosize=1;strokeColor=none;fillColor=none;" parent="1" vertex="1">
          <mxGeometry x="115" y="390" width="140" height="30" as="geometry" />
        </mxCell>
        <mxCell id="ijPsNaQJWuUupHhfUAEt-41" value="" style="endArrow=classic;html=1;rounded=0;strokeWidth=3;" parent="1" edge="1">
          <mxGeometry width="50" height="50" relative="1" as="geometry">
            <mxPoint x="530" y="454.38" as="sourcePoint" />
            <mxPoint x="609" y="454.38" as="targetPoint" />
          </mxGeometry>
        </mxCell>
        <mxCell id="ijPsNaQJWuUupHhfUAEt-42" value="&lt;span style=&quot;font-size: 16px;&quot;&gt;fsm_state_wire&lt;/span&gt;" style="text;html=1;align=center;verticalAlign=middle;resizable=0;points=[];autosize=1;strokeColor=none;fillColor=none;" parent="1" vertex="1">
          <mxGeometry x="600" y="430" width="130" height="30" as="geometry" />
        </mxCell>
        <mxCell id="ijPsNaQJWuUupHhfUAEt-43" value="" style="endArrow=classic;html=1;rounded=0;strokeWidth=3;" parent="1" edge="1">
          <mxGeometry width="50" height="50" relative="1" as="geometry">
            <mxPoint x="530" y="284.38" as="sourcePoint" />
            <mxPoint x="609" y="284.38" as="targetPoint" />
          </mxGeometry>
        </mxCell>
        <mxCell id="ijPsNaQJWuUupHhfUAEt-44" value="&lt;span style=&quot;font-size: 16px;&quot;&gt;game_mode_wire&lt;/span&gt;" style="text;html=1;align=center;verticalAlign=middle;resizable=0;points=[];autosize=1;strokeColor=none;fillColor=none;" parent="1" vertex="1">
          <mxGeometry x="600" y="260" width="150" height="30" as="geometry" />
        </mxCell>
        <mxCell id="ijPsNaQJWuUupHhfUAEt-45" value="" style="endArrow=classic;html=1;rounded=0;strokeWidth=3;" parent="1" edge="1">
          <mxGeometry width="50" height="50" relative="1" as="geometry">
            <mxPoint x="530" y="324.38" as="sourcePoint" />
            <mxPoint x="609" y="324.38" as="targetPoint" />
          </mxGeometry>
        </mxCell>
        <mxCell id="ijPsNaQJWuUupHhfUAEt-46" value="&lt;span style=&quot;font-size: 16px;&quot;&gt;control_mode_wire&lt;/span&gt;" style="text;html=1;align=center;verticalAlign=middle;resizable=0;points=[];autosize=1;strokeColor=none;fillColor=none;" parent="1" vertex="1">
          <mxGeometry x="595" y="300" width="160" height="30" as="geometry" />
        </mxCell>
        <mxCell id="ijPsNaQJWuUupHhfUAEt-47" value="" style="endArrow=classic;html=1;rounded=0;strokeWidth=3;" parent="1" edge="1">
          <mxGeometry width="50" height="50" relative="1" as="geometry">
            <mxPoint x="530" y="404.38" as="sourcePoint" />
            <mxPoint x="609" y="404.38" as="targetPoint" />
          </mxGeometry>
        </mxCell>
        <mxCell id="ijPsNaQJWuUupHhfUAEt-48" value="&lt;span style=&quot;font-size: 16px;&quot;&gt;type_of_straight_wire&lt;/span&gt;" style="text;html=1;align=center;verticalAlign=middle;resizable=0;points=[];autosize=1;strokeColor=none;fillColor=none;" parent="1" vertex="1">
          <mxGeometry x="595" y="380" width="180" height="30" as="geometry" />
        </mxCell>
        <mxCell id="ijPsNaQJWuUupHhfUAEt-49" value="" style="endArrow=classic;html=1;rounded=0;strokeWidth=3;" parent="1" edge="1">
          <mxGeometry width="50" height="50" relative="1" as="geometry">
            <mxPoint x="530" y="364.38" as="sourcePoint" />
            <mxPoint x="609" y="364.38" as="targetPoint" />
          </mxGeometry>
        </mxCell>
        <mxCell id="ijPsNaQJWuUupHhfUAEt-50" value="&lt;span style=&quot;font-size: 16px;&quot;&gt;game_straight_wire&lt;/span&gt;" style="text;html=1;align=center;verticalAlign=middle;resizable=0;points=[];autosize=1;strokeColor=none;fillColor=none;" parent="1" vertex="1">
          <mxGeometry x="600" y="340" width="160" height="30" as="geometry" />
        </mxCell>
        <mxCell id="ijPsNaQJWuUupHhfUAEt-51" value="" style="endArrow=classic;html=1;rounded=0;strokeWidth=3;" parent="1" edge="1">
          <mxGeometry width="50" height="50" relative="1" as="geometry">
            <mxPoint x="234" y="569.38" as="sourcePoint" />
            <mxPoint x="313" y="569.38" as="targetPoint" />
          </mxGeometry>
        </mxCell>
        <mxCell id="ijPsNaQJWuUupHhfUAEt-52" value="&lt;span style=&quot;font-size: 16px;&quot;&gt;random_number_wire&lt;/span&gt;" style="text;html=1;align=center;verticalAlign=middle;resizable=0;points=[];autosize=1;strokeColor=none;fillColor=none;" parent="1" vertex="1">
          <mxGeometry x="299" y="545" width="180" height="30" as="geometry" />
        </mxCell>
        <mxCell id="ijPsNaQJWuUupHhfUAEt-53" value="" style="endArrow=classic;html=1;rounded=0;strokeWidth=3;" parent="1" edge="1">
          <mxGeometry width="50" height="50" relative="1" as="geometry">
            <mxPoint x="-36" y="599.16" as="sourcePoint" />
            <mxPoint x="43" y="599.16" as="targetPoint" />
          </mxGeometry>
        </mxCell>
        <mxCell id="ijPsNaQJWuUupHhfUAEt-54" value="&lt;span style=&quot;font-size: 16px;&quot;&gt;fsm_state_wire&lt;/span&gt;" style="text;html=1;align=center;verticalAlign=middle;resizable=0;points=[];autosize=1;strokeColor=none;fillColor=none;" parent="1" vertex="1">
          <mxGeometry x="-151" y="565" width="130" height="30" as="geometry" />
        </mxCell>
        <mxCell id="ijPsNaQJWuUupHhfUAEt-55" value="" style="endArrow=classic;html=1;rounded=0;strokeWidth=3;" parent="1" edge="1">
          <mxGeometry width="50" height="50" relative="1" as="geometry">
            <mxPoint x="-36" y="539.38" as="sourcePoint" />
            <mxPoint x="43" y="539.38" as="targetPoint" />
          </mxGeometry>
        </mxCell>
        <mxCell id="ijPsNaQJWuUupHhfUAEt-56" value="&lt;span style=&quot;font-size: 16px;&quot;&gt;game_mode_wire&lt;/span&gt;" style="text;html=1;align=center;verticalAlign=middle;resizable=0;points=[];autosize=1;strokeColor=none;fillColor=none;" parent="1" vertex="1">
          <mxGeometry x="-166" y="505" width="150" height="30" as="geometry" />
        </mxCell>
        <mxCell id="ijPsNaQJWuUupHhfUAEt-59" value="" style="endArrow=classic;html=1;rounded=0;strokeWidth=3;" parent="1" edge="1">
          <mxGeometry width="50" height="50" relative="1" as="geometry">
            <mxPoint x="511" y="784.38" as="sourcePoint" />
            <mxPoint x="590" y="784.38" as="targetPoint" />
          </mxGeometry>
        </mxCell>
        <mxCell id="ijPsNaQJWuUupHhfUAEt-60" value="&lt;span style=&quot;font-size: 16px;&quot;&gt;fsm_state_wire&lt;/span&gt;" style="text;html=1;align=center;verticalAlign=middle;resizable=0;points=[];autosize=1;strokeColor=none;fillColor=none;" parent="1" vertex="1">
          <mxGeometry x="431" y="750" width="130" height="30" as="geometry" />
        </mxCell>
        <mxCell id="ijPsNaQJWuUupHhfUAEt-61" value="" style="endArrow=classic;html=1;rounded=0;strokeWidth=3;" parent="1" edge="1">
          <mxGeometry width="50" height="50" relative="1" as="geometry">
            <mxPoint x="509" y="714.38" as="sourcePoint" />
            <mxPoint x="588" y="714.38" as="targetPoint" />
          </mxGeometry>
        </mxCell>
        <mxCell id="ijPsNaQJWuUupHhfUAEt-62" value="&lt;span style=&quot;font-size: 16px;&quot;&gt;game_mode_wire&lt;/span&gt;" style="text;html=1;align=center;verticalAlign=middle;resizable=0;points=[];autosize=1;strokeColor=none;fillColor=none;" parent="1" vertex="1">
          <mxGeometry x="410" y="680" width="150" height="30" as="geometry" />
        </mxCell>
        <mxCell id="ijPsNaQJWuUupHhfUAEt-63" value="" style="endArrow=classic;html=1;rounded=0;strokeWidth=3;" parent="1" edge="1">
          <mxGeometry width="50" height="50" relative="1" as="geometry">
            <mxPoint x="509" y="750" as="sourcePoint" />
            <mxPoint x="588" y="750" as="targetPoint" />
          </mxGeometry>
        </mxCell>
        <mxCell id="ijPsNaQJWuUupHhfUAEt-64" value="&lt;span style=&quot;font-size: 16px;&quot;&gt;control_mode_wire&lt;/span&gt;" style="text;html=1;align=center;verticalAlign=middle;resizable=0;points=[];autosize=1;strokeColor=none;fillColor=none;" parent="1" vertex="1">
          <mxGeometry x="400" y="720" width="160" height="30" as="geometry" />
        </mxCell>
        <mxCell id="ijPsNaQJWuUupHhfUAEt-65" value="" style="endArrow=classic;html=1;rounded=0;strokeWidth=3;" parent="1" edge="1">
          <mxGeometry width="50" height="50" relative="1" as="geometry">
            <mxPoint x="780" y="769.38" as="sourcePoint" />
            <mxPoint x="859" y="769.38" as="targetPoint" />
          </mxGeometry>
        </mxCell>
        <mxCell id="ijPsNaQJWuUupHhfUAEt-66" value="&lt;span style=&quot;font-size: 16px;&quot;&gt;rbg&lt;/span&gt;" style="text;html=1;align=center;verticalAlign=middle;resizable=0;points=[];autosize=1;strokeColor=none;fillColor=none;" parent="1" vertex="1">
          <mxGeometry x="852" y="745" width="50" height="30" as="geometry" />
        </mxCell>
        <mxCell id="ijPsNaQJWuUupHhfUAEt-67" value="" style="endArrow=classic;html=1;rounded=0;strokeWidth=3;" parent="1" edge="1">
          <mxGeometry width="50" height="50" relative="1" as="geometry">
            <mxPoint x="780" y="719.38" as="sourcePoint" />
            <mxPoint x="859" y="719.38" as="targetPoint" />
          </mxGeometry>
        </mxCell>
        <mxCell id="ijPsNaQJWuUupHhfUAEt-68" value="&lt;span style=&quot;font-size: 16px;&quot;&gt;led&lt;/span&gt;" style="text;html=1;align=center;verticalAlign=middle;resizable=0;points=[];autosize=1;strokeColor=none;fillColor=none;" parent="1" vertex="1">
          <mxGeometry x="857" y="690" width="40" height="30" as="geometry" />
        </mxCell>
        <mxCell id="ijPsNaQJWuUupHhfUAEt-69" value="" style="endArrow=classic;html=1;rounded=0;strokeWidth=3;" parent="1" edge="1">
          <mxGeometry width="50" height="50" relative="1" as="geometry">
            <mxPoint x="-39" y="784.38" as="sourcePoint" />
            <mxPoint x="40" y="784.38" as="targetPoint" />
          </mxGeometry>
        </mxCell>
        <mxCell id="ijPsNaQJWuUupHhfUAEt-70" value="&lt;span style=&quot;font-size: 16px;&quot;&gt;fsm_state_wire&lt;/span&gt;" style="text;html=1;align=center;verticalAlign=middle;resizable=0;points=[];autosize=1;strokeColor=none;fillColor=none;" parent="1" vertex="1">
          <mxGeometry x="-119" y="750" width="130" height="30" as="geometry" />
        </mxCell>
        <mxCell id="ijPsNaQJWuUupHhfUAEt-71" value="" style="endArrow=classic;html=1;rounded=0;strokeWidth=3;" parent="1" edge="1">
          <mxGeometry width="50" height="50" relative="1" as="geometry">
            <mxPoint x="-41" y="714.38" as="sourcePoint" />
            <mxPoint x="38" y="714.38" as="targetPoint" />
          </mxGeometry>
        </mxCell>
        <mxCell id="ijPsNaQJWuUupHhfUAEt-72" value="&lt;span style=&quot;font-size: 16px;&quot;&gt;game_mode_wire&lt;/span&gt;" style="text;html=1;align=center;verticalAlign=middle;resizable=0;points=[];autosize=1;strokeColor=none;fillColor=none;" parent="1" vertex="1">
          <mxGeometry x="-140" y="680" width="150" height="30" as="geometry" />
        </mxCell>
        <mxCell id="ijPsNaQJWuUupHhfUAEt-73" value="" style="endArrow=classic;html=1;rounded=0;strokeWidth=3;" parent="1" edge="1">
          <mxGeometry width="50" height="50" relative="1" as="geometry">
            <mxPoint x="230" y="699.38" as="sourcePoint" />
            <mxPoint x="309" y="699.38" as="targetPoint" />
          </mxGeometry>
        </mxCell>
        <mxCell id="ijPsNaQJWuUupHhfUAEt-74" value="&lt;span style=&quot;font-size: 16px;&quot;&gt;rs&lt;/span&gt;" style="text;html=1;align=center;verticalAlign=middle;resizable=0;points=[];autosize=1;strokeColor=none;fillColor=none;" parent="1" vertex="1">
          <mxGeometry x="307" y="670" width="40" height="30" as="geometry" />
        </mxCell>
        <mxCell id="ijPsNaQJWuUupHhfUAEt-76" value="" style="endArrow=classic;html=1;rounded=0;strokeWidth=3;" parent="1" edge="1">
          <mxGeometry width="50" height="50" relative="1" as="geometry">
            <mxPoint x="230" y="729.38" as="sourcePoint" />
            <mxPoint x="309" y="729.38" as="targetPoint" />
          </mxGeometry>
        </mxCell>
        <mxCell id="ijPsNaQJWuUupHhfUAEt-77" value="&lt;span style=&quot;font-size: 16px;&quot;&gt;rw&lt;/span&gt;" style="text;html=1;align=center;verticalAlign=middle;resizable=0;points=[];autosize=1;strokeColor=none;fillColor=none;" parent="1" vertex="1">
          <mxGeometry x="307" y="700" width="40" height="30" as="geometry" />
        </mxCell>
        <mxCell id="ijPsNaQJWuUupHhfUAEt-78" value="" style="endArrow=classic;html=1;rounded=0;strokeWidth=3;" parent="1" edge="1">
          <mxGeometry width="50" height="50" relative="1" as="geometry">
            <mxPoint x="230" y="759.38" as="sourcePoint" />
            <mxPoint x="309" y="759.38" as="targetPoint" />
          </mxGeometry>
        </mxCell>
        <mxCell id="ijPsNaQJWuUupHhfUAEt-79" value="&lt;span style=&quot;font-size: 16px;&quot;&gt;en&lt;/span&gt;" style="text;html=1;align=center;verticalAlign=middle;resizable=0;points=[];autosize=1;strokeColor=none;fillColor=none;" parent="1" vertex="1">
          <mxGeometry x="307" y="730" width="40" height="30" as="geometry" />
        </mxCell>
        <mxCell id="ijPsNaQJWuUupHhfUAEt-80" value="" style="endArrow=classic;html=1;rounded=0;strokeWidth=3;" parent="1" edge="1">
          <mxGeometry width="50" height="50" relative="1" as="geometry">
            <mxPoint x="230" y="789.38" as="sourcePoint" />
            <mxPoint x="309" y="789.38" as="targetPoint" />
          </mxGeometry>
        </mxCell>
        <mxCell id="ijPsNaQJWuUupHhfUAEt-81" value="&lt;span style=&quot;font-size: 16px;&quot;&gt;data&lt;/span&gt;" style="text;html=1;align=center;verticalAlign=middle;resizable=0;points=[];autosize=1;strokeColor=none;fillColor=none;" parent="1" vertex="1">
          <mxGeometry x="302" y="760" width="50" height="30" as="geometry" />
        </mxCell>
        <mxCell id="ijPsNaQJWuUupHhfUAEt-82" value="" style="endArrow=classic;html=1;rounded=0;strokeWidth=3;" parent="1" edge="1">
          <mxGeometry width="50" height="50" relative="1" as="geometry">
            <mxPoint x="-156" y="110" as="sourcePoint" />
            <mxPoint x="-77" y="110" as="targetPoint" />
          </mxGeometry>
        </mxCell>
        <mxCell id="ijPsNaQJWuUupHhfUAEt-83" value="&lt;font style=&quot;font-size: 16px;&quot;&gt;clk&lt;/font&gt;" style="text;html=1;align=center;verticalAlign=middle;resizable=0;points=[];autosize=1;strokeColor=none;fillColor=none;" parent="1" vertex="1">
          <mxGeometry x="-196" y="90" width="40" height="30" as="geometry" />
        </mxCell>
        <mxCell id="ijPsNaQJWuUupHhfUAEt-84" value="" style="endArrow=classic;html=1;rounded=0;strokeWidth=3;" parent="1" edge="1">
          <mxGeometry width="50" height="50" relative="1" as="geometry">
            <mxPoint x="-156" y="160" as="sourcePoint" />
            <mxPoint x="-77" y="160" as="targetPoint" />
          </mxGeometry>
        </mxCell>
        <mxCell id="ijPsNaQJWuUupHhfUAEt-85" value="&lt;span style=&quot;font-size: 16px;&quot;&gt;music&lt;/span&gt;" style="text;html=1;align=center;verticalAlign=middle;resizable=0;points=[];autosize=1;strokeColor=none;fillColor=none;" parent="1" vertex="1">
          <mxGeometry x="-220" y="140" width="70" height="30" as="geometry" />
        </mxCell>
        <mxCell id="ijPsNaQJWuUupHhfUAEt-86" value="" style="endArrow=classic;html=1;rounded=0;strokeWidth=3;" parent="1" edge="1">
          <mxGeometry width="50" height="50" relative="1" as="geometry">
            <mxPoint x="115" y="138.82" as="sourcePoint" />
            <mxPoint x="194" y="138.82" as="targetPoint" />
          </mxGeometry>
        </mxCell>
        <mxCell id="ijPsNaQJWuUupHhfUAEt-87" value="&lt;span style=&quot;font-size: 16px;&quot;&gt;buzzer&lt;/span&gt;" style="text;html=1;align=center;verticalAlign=middle;resizable=0;points=[];autosize=1;strokeColor=none;fillColor=none;" parent="1" vertex="1">
          <mxGeometry x="180" y="110" width="70" height="30" as="geometry" />
        </mxCell>
        <mxCell id="ijPsNaQJWuUupHhfUAEt-88" value="" style="endArrow=classic;html=1;rounded=0;strokeWidth=3;" parent="1" edge="1">
          <mxGeometry width="50" height="50" relative="1" as="geometry">
            <mxPoint x="1051" y="154.38" as="sourcePoint" />
            <mxPoint x="1130" y="154.38" as="targetPoint" />
          </mxGeometry>
        </mxCell>
        <mxCell id="ijPsNaQJWuUupHhfUAEt-89" value="&lt;span style=&quot;font-size: 16px;&quot;&gt;result_state_wire&lt;/span&gt;" style="text;html=1;align=center;verticalAlign=middle;resizable=0;points=[];autosize=1;strokeColor=none;fillColor=none;" parent="1" vertex="1">
          <mxGeometry x="1126" y="130" width="140" height="30" as="geometry" />
        </mxCell>
        <mxCell id="ijPsNaQJWuUupHhfUAEt-90" value="" style="endArrow=classic;html=1;rounded=0;strokeWidth=3;" parent="1" edge="1">
          <mxGeometry width="50" height="50" relative="1" as="geometry">
            <mxPoint x="797" y="99" as="sourcePoint" />
            <mxPoint x="876" y="99" as="targetPoint" />
          </mxGeometry>
        </mxCell>
        <mxCell id="ijPsNaQJWuUupHhfUAEt-91" value="&lt;span style=&quot;font-size: 16px;&quot;&gt;random_number_wire&lt;/span&gt;" style="text;html=1;align=center;verticalAlign=middle;resizable=0;points=[];autosize=1;strokeColor=none;fillColor=none;" parent="1" vertex="1">
          <mxGeometry x="680" y="64.62" width="180" height="30" as="geometry" />
        </mxCell>
        <mxCell id="ijPsNaQJWuUupHhfUAEt-92" value="" style="endArrow=classic;html=1;rounded=0;strokeWidth=3;" parent="1" edge="1">
          <mxGeometry width="50" height="50" relative="1" as="geometry">
            <mxPoint x="798" y="133.82" as="sourcePoint" />
            <mxPoint x="877" y="133.82" as="targetPoint" />
          </mxGeometry>
        </mxCell>
        <mxCell id="ijPsNaQJWuUupHhfUAEt-93" value="&lt;span style=&quot;font-size: 16px;&quot;&gt;game_mode_wire&lt;/span&gt;" style="text;html=1;align=center;verticalAlign=middle;resizable=0;points=[];autosize=1;strokeColor=none;fillColor=none;" parent="1" vertex="1">
          <mxGeometry x="700" y="104.62" width="150" height="30" as="geometry" />
        </mxCell>
        <mxCell id="ijPsNaQJWuUupHhfUAEt-96" value="" style="endArrow=classic;html=1;rounded=0;strokeWidth=3;" parent="1" edge="1">
          <mxGeometry width="50" height="50" relative="1" as="geometry">
            <mxPoint x="798" y="169" as="sourcePoint" />
            <mxPoint x="877" y="169" as="targetPoint" />
          </mxGeometry>
        </mxCell>
        <mxCell id="ijPsNaQJWuUupHhfUAEt-97" value="&lt;span style=&quot;font-size: 16px;&quot;&gt;game_straight_wire&lt;/span&gt;" style="text;html=1;align=center;verticalAlign=middle;resizable=0;points=[];autosize=1;strokeColor=none;fillColor=none;" parent="1" vertex="1">
          <mxGeometry x="690" y="134.62" width="160" height="30" as="geometry" />
        </mxCell>
        <mxCell id="ijPsNaQJWuUupHhfUAEt-98" value="" style="endArrow=classic;html=1;rounded=0;strokeWidth=3;" parent="1" edge="1">
          <mxGeometry width="50" height="50" relative="1" as="geometry">
            <mxPoint x="798" y="211.69" as="sourcePoint" />
            <mxPoint x="877" y="211.69" as="targetPoint" />
          </mxGeometry>
        </mxCell>
        <mxCell id="ijPsNaQJWuUupHhfUAEt-99" value="&lt;span style=&quot;font-size: 16px;&quot;&gt;fsm_state_wire&lt;/span&gt;" style="text;html=1;align=center;verticalAlign=middle;resizable=0;points=[];autosize=1;strokeColor=none;fillColor=none;" parent="1" vertex="1">
          <mxGeometry x="720" y="180" width="130" height="30" as="geometry" />
        </mxCell>
        <mxCell id="RCjO03rJqfDvDkTbUDN0-1" value="&lt;font style=&quot;font-size: 16px;&quot;&gt;controlGameWithBluetooth&lt;/font&gt;" style="rounded=0;whiteSpace=wrap;html=1;fillColor=#d5e8d4;strokeColor=#82b366;gradientColor=#97d077;" vertex="1" parent="1">
          <mxGeometry x="755" y="510" width="238" height="110" as="geometry" />
        </mxCell>
        <mxCell id="RCjO03rJqfDvDkTbUDN0-2" value="" style="endArrow=classic;html=1;rounded=0;strokeWidth=3;" edge="1" parent="1">
          <mxGeometry width="50" height="50" relative="1" as="geometry">
            <mxPoint x="676" y="561.48" as="sourcePoint" />
            <mxPoint x="755" y="561.48" as="targetPoint" />
          </mxGeometry>
        </mxCell>
        <mxCell id="RCjO03rJqfDvDkTbUDN0-3" value="&lt;span style=&quot;font-size: 16px;&quot;&gt;rx&lt;/span&gt;" style="text;html=1;align=center;verticalAlign=middle;resizable=0;points=[];autosize=1;strokeColor=none;fillColor=none;" vertex="1" parent="1">
          <mxGeometry x="640" y="530" width="40" height="30" as="geometry" />
        </mxCell>
        <mxCell id="RCjO03rJqfDvDkTbUDN0-5" value="" style="endArrow=classic;html=1;rounded=0;strokeWidth=3;" edge="1" parent="1">
          <mxGeometry width="50" height="50" relative="1" as="geometry">
            <mxPoint x="993" y="544.17" as="sourcePoint" />
            <mxPoint x="1072" y="544.17" as="targetPoint" />
          </mxGeometry>
        </mxCell>
        <mxCell id="RCjO03rJqfDvDkTbUDN0-6" value="&lt;span style=&quot;font-size: 16px;&quot;&gt;tx&lt;/span&gt;" style="text;html=1;align=center;verticalAlign=middle;resizable=0;points=[];autosize=1;strokeColor=none;fillColor=none;" vertex="1" parent="1">
          <mxGeometry x="1070" y="505" width="40" height="30" as="geometry" />
        </mxCell>
        <mxCell id="RCjO03rJqfDvDkTbUDN0-7" value="" style="endArrow=classic;html=1;rounded=0;strokeWidth=3;" edge="1" parent="1">
          <mxGeometry width="50" height="50" relative="1" as="geometry">
            <mxPoint x="993" y="583.17" as="sourcePoint" />
            <mxPoint x="1072" y="583.17" as="targetPoint" />
          </mxGeometry>
        </mxCell>
        <mxCell id="RCjO03rJqfDvDkTbUDN0-8" value="&lt;span style=&quot;font-size: 16px;&quot;&gt;bluetooth_button_state&lt;/span&gt;" style="text;html=1;align=center;verticalAlign=middle;resizable=0;points=[];autosize=1;strokeColor=none;fillColor=none;" vertex="1" parent="1">
          <mxGeometry x="1051" y="550" width="190" height="30" as="geometry" />
        </mxCell>
      </root>
    </mxGraphModel>
  </diagram>
</mxfile>
